<?xml version="1.0" encoding="UTF-8" standalone="no"?>
<!-- Generator: Adobe Illustrator 15.0.0, SVG Export Plug-In . SVG Version: 6.00 Build 0)  -->

<svg
   xmlns:dc="http://purl.org/dc/elements/1.1/"
   xmlns:cc="http://creativecommons.org/ns#"
   xmlns:rdf="http://www.w3.org/1999/02/22-rdf-syntax-ns#"
   xmlns:svg="http://www.w3.org/2000/svg"
   xmlns="http://www.w3.org/2000/svg"
   xmlns:sodipodi="http://sodipodi.sourceforge.net/DTD/sodipodi-0.dtd"
   xmlns:inkscape="http://www.inkscape.org/namespaces/inkscape"
   version="1.1"
   id="Capa_1"
   x="0px"
   y="0px"
   width="1052.3622"
   height="744.09448"
   viewBox="0 0 1052.3622 744.09445"
   enable-background="new 0 0 841.89 595.28"
   xml:space="preserve"
   inkscape:version="0.92.5 (2060ec1f9f, 2020-04-08)"
   sodipodi:docname="dolibarr_preferred_partner_es.svg"
   inkscape:export-filename="/media/DATA/Mes Developpements/dolibarrasso/logo/dolibarr_preferred_partner.png"
   inkscape:export-xdpi="90"
   inkscape:export-ydpi="90"><metadata
   id="metadata3183"><rdf:RDF><cc:Work
       rdf:about=""><dc:format>image/svg+xml</dc:format><dc:type
         rdf:resource="http://purl.org/dc/dcmitype/StillImage" /><dc:title /></cc:Work></rdf:RDF></metadata><defs
   id="defs3181"><linearGradient
     id="linearGradient3953"><stop
       style="stop-color:#0b5b85;stop-opacity:1;"
       offset="0"
       id="stop3955" /><stop
       style="stop-color:#0b5b85;stop-opacity:0.627451;"
       offset="1"
       id="stop3957" /></linearGradient><linearGradient
     id="linearGradient3734-3-6"><stop
       style="stop-color:#49496f;stop-opacity:1"
       offset="0"
       id="stop3736" /><stop
       style="stop-color:#45455a;stop-opacity:1"
       offset="1"
       id="stop3738" /></linearGradient></defs><sodipodi:namedview
   pagecolor="#000000"
   bordercolor="#666666"
   borderopacity="1"
   objecttolerance="10"
   gridtolerance="10"
   guidetolerance="10"
   inkscape:pageopacity="0"
   inkscape:pageshadow="2"
   inkscape:window-width="1920"
   inkscape:window-height="1024"
   id="namedview3179"
   showgrid="false"
   inkscape:zoom="1"
   inkscape:cx="378.01354"
   inkscape:cy="336.20913"
   inkscape:window-x="0"
   inkscape:window-y="0"
   inkscape:window-maximized="1"
   inkscape:current-layer="g3105"
   inkscape:showpageshadow="true" />
<g
   id="g3105"
   transform="translate(0,148.81446)">
	
	
	
	
	
	
	
	

<g
   transform="translate(106.73621,40.62062)"
   id="g2988"><path
     id="path2990"
     d="m 366.584,337.487 h -7.315 v 10.087 h -1.437 v -21.812 l 8.751,0.034 c 3.173,0.033 4.977,1.937 4.977,5.778 v 0.134 c 10e-4,3.842 -1.802,5.745 -4.976,5.779 z m 3.541,-5.879 c 0,-2.405 -1.069,-4.376 -3.641,-4.376 h -7.215 v 8.818 h 7.215 c 2.572,0 3.641,-1.971 3.641,-4.376 z"
     inkscape:connector-curvature="0"
     style="fill:#656464" /><path
     id="path2992"
     d="m 382.651,333.946 c -0.735,-0.602 -1.904,-0.969 -2.939,-0.969 -1.737,0 -3.674,0.902 -3.674,2.271 l -0.033,12.325 h -1.437 v -12.191 c 0,-0.234 0,-0.435 0.034,-0.701 0.2,-1.47 1.904,-3.007 5.11,-3.007 1.67,0 2.973,0.435 3.808,1.069 z"
     inkscape:connector-curvature="0"
     style="fill:#656464" /><path
     id="path2994"
     d="m 386.359,339.925 c 0,0.435 0,0.902 0,1.57 0,1.437 0.1,2.004 0.3,2.772 0.368,1.604 1.637,2.438 3.741,2.438 h 0.033 c 2.104,0 3.374,-0.835 3.741,-2.438 0.066,-0.2 0.1,-0.401 0.133,-0.602 h 1.503 c -0.033,0.301 -0.1,0.602 -0.167,0.902 -0.3,1.303 -1.403,3.34 -5.244,3.34 -3.808,0 -4.877,-2.037 -5.211,-3.34 -0.2,-0.869 -0.3,-1.57 -0.334,-3.106 v -0.501 c 0,-1.136 0,-1.57 0,-2.572 0,-0.367 0.167,-2.338 0.334,-3.173 0.468,-2.205 2.472,-3.374 5.211,-3.374 2.772,0 4.776,1.169 5.244,3.374 0.167,0.835 0.301,2.806 0.301,3.173 0.034,0.568 0.034,1.002 0.034,1.536 h -9.619 z m 8.117,-1.536 c -0.033,-0.468 -0.167,-2.271 -0.3,-2.906 -0.301,-1.469 -1.67,-2.438 -3.741,-2.438 h -0.033 c -2.071,0 -3.44,0.969 -3.741,2.438 -0.133,0.635 -0.3,2.271 -0.3,2.906 v 0.067 h 8.116 v -0.067 z"
     inkscape:connector-curvature="0"
     style="fill:#656464" /><path
     id="path2996"
     d="m 400.956,333.512 v 14.062 h -1.47 v -19.473 c 0,-1.437 2.205,-2.873 4.743,-3.007 v 1.303 c -1.47,0.101 -3.04,0.868 -3.273,1.971 v 3.708 h 3.808 v 1.436 z"
     inkscape:connector-curvature="0"
     style="fill:#656464" /><path
     id="path2998"
     d="m 408.772,339.925 c 0,0.435 0,0.902 0,1.57 0,1.437 0.1,2.004 0.3,2.772 0.368,1.604 1.637,2.438 3.741,2.438 h 0.033 c 2.104,0 3.374,-0.835 3.741,-2.438 0.066,-0.2 0.1,-0.401 0.133,-0.602 h 1.503 c -0.034,0.301 -0.101,0.602 -0.167,0.902 -0.3,1.303 -1.403,3.34 -5.244,3.34 -3.808,0 -4.877,-2.037 -5.211,-3.34 -0.2,-0.869 -0.3,-1.57 -0.334,-3.106 v -0.501 c 0,-1.136 0,-1.57 0,-2.572 0,-0.367 0.167,-2.338 0.334,-3.173 0.468,-2.205 2.472,-3.374 5.211,-3.374 2.772,0 4.776,1.169 5.244,3.374 0.167,0.835 0.301,2.806 0.301,3.173 0.034,0.568 0.034,1.002 0.034,1.536 h -9.619 z m 8.116,-1.536 c -0.033,-0.468 -0.167,-2.271 -0.3,-2.906 -0.301,-1.469 -1.67,-2.438 -3.741,-2.438 h -0.033 c -2.071,0 -3.44,0.969 -3.741,2.438 -0.133,0.635 -0.3,2.271 -0.3,2.906 v 0.067 h 8.116 v -0.067 z"
     inkscape:connector-curvature="0"
     style="fill:#656464" /><path
     id="path3000"
     d="m 429.314,333.946 c -0.735,-0.602 -1.904,-0.969 -2.939,-0.969 -1.737,0 -3.674,0.902 -3.674,2.271 l -0.034,12.325 h -1.436 v -12.191 c 0,-0.234 0,-0.435 0.034,-0.701 0.2,-1.47 1.903,-3.007 5.11,-3.007 1.67,0 2.973,0.435 3.808,1.069 z"
     inkscape:connector-curvature="0"
     style="fill:#656464" /><path
     id="path3002"
     d="m 439.937,333.946 c -0.734,-0.602 -1.903,-0.969 -2.939,-0.969 -1.736,0 -3.674,0.902 -3.674,2.271 l -0.033,12.325 h -1.437 v -12.191 c 0,-0.234 0,-0.435 0.033,-0.701 0.201,-1.47 1.904,-3.007 5.11,-3.007 1.671,0 2.974,0.435 3.809,1.069 z"
     inkscape:connector-curvature="0"
     style="fill:#656464" /><path
     id="path3004"
     d="m 443.644,339.925 c 0,0.435 0,0.902 0,1.57 0,1.437 0.101,2.004 0.301,2.772 0.367,1.604 1.637,2.438 3.741,2.438 h 0.033 c 2.104,0 3.374,-0.835 3.741,-2.438 0.066,-0.2 0.1,-0.401 0.134,-0.602 h 1.503 c -0.033,0.301 -0.101,0.602 -0.167,0.902 -0.301,1.303 -1.403,3.34 -5.244,3.34 -3.808,0 -4.877,-2.037 -5.211,-3.34 -0.2,-0.869 -0.301,-1.57 -0.334,-3.106 v -0.501 c 0,-1.136 0,-1.57 0,-2.572 0,-0.367 0.167,-2.338 0.334,-3.173 0.468,-2.205 2.472,-3.374 5.211,-3.374 2.772,0 4.776,1.169 5.244,3.374 0.167,0.835 0.301,2.806 0.301,3.173 0.033,0.568 0.033,1.002 0.033,1.536 h -9.62 z m 8.117,-1.536 c -0.034,-0.468 -0.167,-2.271 -0.301,-2.906 -0.301,-1.469 -1.67,-2.438 -3.741,-2.438 h -0.033 c -2.071,0 -3.44,0.969 -3.741,2.438 -0.134,0.635 -0.301,2.271 -0.301,2.906 v 0.067 h 8.117 z"
     inkscape:connector-curvature="0"
     style="fill:#656464" /><path
     id="path3006"
     d="m 466.559,343.633 c 0,0.301 0,0.534 -0.067,0.835 -0.3,1.303 -1.336,3.34 -5.177,3.34 -3.808,0 -4.877,-2.037 -5.211,-3.34 -0.2,-0.868 -0.301,-1.569 -0.334,-3.106 v -0.501 c 0,-1.136 0,-1.303 0,-2.305 0,-0.367 0.167,-2.305 0.334,-3.173 0.468,-2.171 2.472,-3.374 5.211,-3.374 h 3.808 v -6.246 h 1.437 v 17.87 z m -1.437,0 v -10.321 h -3.808 c -2.071,0 -3.44,0.869 -3.741,2.338 -0.134,0.635 -0.301,2.306 -0.301,2.939 0,1.036 0,1.37 0,2.806 0,1.437 0.101,2.005 0.301,2.772 0.367,1.604 1.637,2.339 3.741,2.339 h 0.033 c 2.104,0 3.374,-0.735 3.741,-2.339 0.033,-0.167 0.033,-0.334 0.066,-0.534 z"
     inkscape:connector-curvature="0"
     style="fill:#656464" /><path
     id="path3008"
     d="m 488.671,337.487 h -7.314 v 10.087 h -1.437 v -21.812 l 8.751,0.034 c 3.174,0.033 4.978,1.937 4.978,5.778 v 0.134 c -10e-4,3.842 -1.804,5.745 -4.978,5.779 z m 3.541,-5.879 c 0,-2.405 -1.069,-4.376 -3.641,-4.376 h -7.215 v 8.818 h 7.215 c 2.571,0 3.641,-1.971 3.641,-4.376 z"
     inkscape:connector-curvature="0"
     style="fill:#656464" /><path
     id="path3010"
     d="m 501.097,347.875 c -2.705,0 -5.11,-1.503 -5.11,-3.006 v -3.774 c 0,-1.671 1.971,-3.007 5.11,-3.007 h 3.641 v -2.806 c 0,-1.369 -1.937,-2.305 -3.641,-2.305 -1.437,0 -3.039,0.635 -3.507,1.637 l -1.369,-0.768 c 0.701,-1.17 2.672,-2.172 4.876,-2.172 2.672,0 5.077,1.537 5.077,3.04 v 10.154 c 0,1.504 -2.405,3.007 -5.077,3.007 z m 3.64,-8.417 h -3.774 c -2.07,0 -3.54,0.668 -3.54,2.204 v 2.639 c 0,1.369 1.938,2.271 3.674,2.271 1.704,0 3.641,-0.902 3.641,-2.271 v -4.843 z"
     inkscape:connector-curvature="0"
     style="fill:#656464" /><path
     id="path3012"
     d="m 517.264,333.946 c -0.734,-0.602 -1.903,-0.969 -2.939,-0.969 -1.736,0 -3.674,0.902 -3.674,2.271 l -0.033,12.325 h -1.437 v -12.191 c 0,-0.234 0,-0.435 0.033,-0.701 0.201,-1.47 1.904,-3.007 5.11,-3.007 1.671,0 2.974,0.435 3.809,1.069 z"
     inkscape:connector-curvature="0"
     style="fill:#656464" /><path
     id="path3014"
     d="m 522.575,333.512 v 11.09 c 0,1.035 1.069,1.804 2.338,2.138 l -0.534,1.235 c -1.837,-0.501 -3.24,-1.637 -3.24,-2.771 v -11.691 h -1.336 v -1.436 h 1.336 v -6.347 h 1.437 v 6.347 h 3.34 v 1.436 h -3.341 z"
     inkscape:connector-curvature="0"
     style="fill:#656464" /><path
     id="path3016"
     d="m 539.678,347.574 h -1.47 c 0,-12.158 0,-12.125 0,-12.125 0,-1.369 -1.737,-2.271 -4.108,-2.271 -1.136,0 -2.506,0.134 -3.207,0.468 v 13.896 c 0,0.033 0,0.033 0,0.033 h -1.47 c 0,-6.246 0,-15.03 0,-15.03 1.336,-0.334 2.171,-0.668 4.91,-0.668 1.202,0 2.204,0.2 3.04,0.534 1.369,0.567 2.305,1.536 2.305,2.472 z"
     inkscape:connector-curvature="0"
     style="fill:#656464" /><path
     id="path3018"
     d="m 544.521,339.925 c 0,0.435 0,0.902 0,1.57 0,1.437 0.101,2.004 0.301,2.772 0.367,1.604 1.637,2.438 3.741,2.438 h 0.033 c 2.104,0 3.374,-0.835 3.741,-2.438 0.066,-0.2 0.1,-0.401 0.134,-0.602 h 1.503 c -0.033,0.301 -0.101,0.602 -0.167,0.902 -0.301,1.303 -1.403,3.34 -5.244,3.34 -3.808,0 -4.877,-2.037 -5.211,-3.34 -0.2,-0.869 -0.301,-1.57 -0.334,-3.106 v -0.501 c 0,-1.136 0,-1.57 0,-2.572 0,-0.367 0.167,-2.338 0.334,-3.173 0.468,-2.205 2.472,-3.374 5.211,-3.374 2.772,0 4.776,1.169 5.244,3.374 0.167,0.835 0.301,2.806 0.301,3.173 0.033,0.568 0.033,1.002 0.033,1.536 h -9.62 z m 8.117,-1.536 c -0.034,-0.468 -0.167,-2.271 -0.301,-2.906 -0.301,-1.469 -1.67,-2.438 -3.741,-2.438 h -0.033 c -2.071,0 -3.44,0.969 -3.741,2.438 -0.134,0.635 -0.301,2.271 -0.301,2.906 v 0.067 h 8.117 z"
     inkscape:connector-curvature="0"
     style="fill:#656464" /><path
     id="path3020"
     d="m 565.063,333.946 c -0.734,-0.602 -1.903,-0.969 -2.939,-0.969 -1.736,0 -3.674,0.902 -3.674,2.271 l -0.033,12.325 h -1.437 v -12.191 c 0,-0.234 0,-0.435 0.033,-0.701 0.201,-1.47 1.904,-3.007 5.11,-3.007 1.671,0 2.974,0.435 3.809,1.069 z"
     inkscape:connector-curvature="0"
     style="fill:#656464" /></g><path
   id="path3022"
   d="m 379.31121,296.50862 h -26.099 v 0.027 h 26.702 c -0.203,-0.005 -0.399,-0.027 -0.603,-0.027 z"
   inkscape:connector-curvature="0"
   style="fill:none" /><rect
   id="rect3024"
   height="0.086999997"
   width="6.4889998"
   y="371.91364"
   x="353.21219"
   style="fill:none" /><path
   id="path3026"
   d="m 403.01121,350.38162 c 0,-7.593 -1.342,-12.96 -7.162,-17.847 -2.56,2.956 -6.053,4.693 -10.509,5.187 l -2.935,0.307 h -19.38 v 33.886 0 0.087 h 19.522 c 13.991,-10e-4 20.464,-7.859 20.464,-21.62 z"
   inkscape:connector-curvature="0"
   style="fill:#616064;fill-opacity:1" /><path
   id="path3028"
   d="m 415.37021,302.98062 c -5.18,-13.372 -17.217,-21.734 -32.593,-22.9 l -4.846,-0.334 h -41.284 v 109.153 h 41.284 l 4.846,-0.34 c 15.376,-1.172 27.413,-9.692 32.593,-23.07 0.339,-0.832 0.673,-1.665 1.007,-2.678 0.499,-1.826 1.002,-4.17 1.002,-7.015 v -43.293 -0.17 c 10e-4,-0.492 -0.169,-5.344 -2.009,-9.353 z m -62.487,68.933 v -75.378 h 0.329 v -0.027 h 26.099 c 0.204,0 0.4,0.022 0.603,0.027 h 2.491 l 2.935,0.301 c 4.874,0.553 8.608,2.558 11.215,6.04 2.602,3.488 3.905,8.206 3.905,14.153 v 0.507 c 0,2.692 -0.281,5.118 -0.814,7.305 -0.645,2.647 -1.666,4.938 -3.091,6.845 -0.223,0.298 -0.466,0.571 -0.706,0.848 5.82,4.886 7.162,10.254 7.162,17.847 0,13.762 -6.473,21.619 -20.464,21.619 h -22.846 -6.818 z"
   inkscape:connector-curvature="0"
   style="fill:#a18917;fill-opacity:1" /><path
   id="path3030"
   d="m 396.55421,302.87662 c -2.606,-3.482 -6.341,-5.487 -11.215,-6.04 l -2.935,-0.301 h -2.491 -26.702 -0.329 v 75.473 h 0.329 6.489 3.324 v -33.98 h 19.38 l 2.935,-0.307 c 4.457,-0.493 7.949,-2.231 10.509,-5.187 0.24,-0.277 0.482,-0.55 0.706,-0.848 1.425,-1.907 2.446,-4.198 3.091,-6.845 0.533,-2.187 0.814,-4.612 0.814,-7.305 v -0.507 c 0,-5.947 -1.303,-10.664 -3.905,-14.153 z"
   inkscape:connector-curvature="0"
   style="fill:#ffffff" /><g
   transform="translate(106.73621,40.62062)"
   id="g3032"><g
     id="g3034"><path
       id="path3036"
       d="m 370.021,303.267 c 0,0.477 0,0.914 0,1.322 0,0.413 -0.07,0.852 -0.203,1.328 -0.341,1.292 -0.852,2.617 -1.527,3.976 -0.682,1.36 -1.684,2.584 -3.009,3.669 -1.324,1.087 -3.023,1.968 -5.095,2.652 -2.074,0.677 -4.605,1.017 -7.594,1.017 -3.195,0 -5.843,-0.392 -7.95,-1.172 -2.107,-0.78 -3.804,-1.747 -5.094,-2.908 -1.291,-1.149 -2.262,-2.374 -2.907,-3.666 -0.646,-1.292 -1.07,-2.478 -1.274,-3.567 -0.339,-1.358 -0.596,-2.717 -0.763,-4.077 -0.172,-1.358 -0.292,-3.261 -0.358,-5.706 v -5.812 c 0,-0.269 0.034,-0.83 0.101,-1.676 0.068,-0.852 0.155,-1.766 0.257,-2.754 0.1,-0.986 0.216,-1.991 0.356,-3.006 0.136,-1.021 0.271,-1.87 0.407,-2.549 0.748,-3.601 2.631,-6.407 5.657,-8.408 3.022,-2.004 6.881,-3.009 11.568,-3.009 h 10.194 v -19.265 h 7.338 z m -7.236,-27.517 h -10.194 c -2.785,0 -5.044,0.525 -6.776,1.58 -1.733,1.054 -2.802,2.53 -3.213,4.433 -0.134,0.476 -0.251,1.106 -0.354,1.886 -0.103,0.78 -0.188,1.596 -0.254,2.445 -0.067,0.852 -0.138,1.665 -0.204,2.442 -0.067,0.786 -0.104,1.413 -0.104,1.887 v 5.813 c 0.07,2.108 0.156,3.701 0.257,4.791 0.102,1.085 0.322,2.207 0.66,3.359 0.139,0.616 0.375,1.279 0.716,1.988 0.338,0.718 0.867,1.377 1.58,1.987 0.713,0.611 1.683,1.109 2.904,1.481 1.224,0.372 2.82,0.559 4.79,0.559 1.972,0 3.584,-0.187 4.841,-0.559 1.257,-0.372 2.259,-0.87 3.008,-1.481 0.748,-0.61 1.29,-1.27 1.632,-1.987 0.338,-0.709 0.575,-1.372 0.713,-1.988 v -1.325 -27.311 z"
       inkscape:connector-curvature="0"
       style="fill:#656464" /><path
       id="path3038"
       d="m 411.502,296.134 c 0,2.445 -0.085,4.348 -0.257,5.706 -0.17,1.36 -0.425,2.719 -0.763,4.077 -0.272,1.09 -0.731,2.275 -1.375,3.567 -0.647,1.292 -1.618,2.517 -2.908,3.666 -1.29,1.161 -3.006,2.128 -5.145,2.908 -2.141,0.78 -4.811,1.172 -8.002,1.172 -3.195,0 -5.846,-0.392 -7.95,-1.172 -2.107,-0.78 -3.806,-1.747 -5.097,-2.908 -1.291,-1.149 -2.26,-2.374 -2.903,-3.666 -0.647,-1.292 -1.071,-2.478 -1.276,-3.567 -0.341,-1.358 -0.594,-2.717 -0.761,-4.077 -0.172,-1.358 -0.292,-3.261 -0.36,-5.706 v -6.522 c 0,-1.903 0.103,-3.636 0.307,-5.199 0.204,-1.563 0.474,-3.16 0.815,-4.792 0.748,-3.598 2.632,-6.404 5.657,-8.409 3.022,-2.001 6.879,-3.006 11.569,-3.006 4.689,0 8.577,1.005 11.671,3.006 3.091,2.004 5.009,4.811 5.758,8.409 0.134,0.747 0.271,1.681 0.407,2.806 0.135,1.115 0.237,2.207 0.307,3.258 0.065,1.054 0.168,2.36 0.307,3.926 0,0.611 0,1.29 0,2.037 0,0.75 0,1.443 0,2.092 0,0.644 0,1.186 0,1.626 -10e-4,0.445 -10e-4,0.702 -10e-4,0.768 z m -7.441,-6.424 c 0,-0.337 -0.036,-0.898 -0.102,-1.681 -0.068,-0.78 -0.138,-1.61 -0.204,-2.497 -0.068,-0.882 -0.171,-1.73 -0.305,-2.549 -0.138,-0.816 -0.239,-1.462 -0.307,-1.933 -0.408,-1.972 -1.495,-3.502 -3.261,-4.586 -1.768,-1.087 -4.01,-1.634 -6.726,-1.634 -2.79,0 -5.065,0.547 -6.829,1.634 -1.769,1.084 -2.855,2.615 -3.264,4.586 -0.135,0.471 -0.252,1.117 -0.356,1.933 -0.104,0.818 -0.189,1.651 -0.254,2.5 -0.067,0.846 -0.138,1.665 -0.204,2.448 -0.068,0.78 -0.103,1.375 -0.103,1.78 v 6.525 c 0.068,2.108 0.155,3.686 0.254,4.736 0.102,1.055 0.323,2.193 0.663,3.414 1.02,4.148 4.384,6.221 10.092,6.221 5.709,0 9.07,-2.072 10.09,-6.221 0.271,-1.221 0.475,-2.359 0.61,-3.414 0.136,-1.051 0.204,-2.628 0.204,-4.736 v -6.526 z"
       inkscape:connector-curvature="0"
       style="fill:#656464" /><path
       id="path3040"
       d="m 416.597,316.312 v -66.659 h 7.236 v 66.659 z"
       inkscape:connector-curvature="0"
       style="fill:#656464" /><path
       id="path3042"
       d="m 430.966,262.599 v -8.66 h 7.239 v 8.66 z m 0,53.713 v -47.395 h 7.239 v 47.395 z"
       inkscape:connector-curvature="0"
       style="fill:#656464" /><path
       id="path3044"
       d="m 481.52,296.134 c 0,2.445 -0.084,4.348 -0.254,5.706 -0.167,1.36 -0.425,2.719 -0.762,4.077 -0.202,1.09 -0.627,2.275 -1.271,3.567 -0.644,1.292 -1.609,2.517 -2.896,3.666 -1.287,1.161 -2.981,2.128 -5.082,2.908 -2.1,0.78 -4.739,1.172 -7.927,1.172 -2.844,0 -5.265,-0.305 -7.266,-0.918 -1.999,-0.613 -3.658,-1.426 -4.979,-2.447 -1.325,-1.016 -2.354,-2.152 -3.1,-3.412 -0.747,-1.256 -1.289,-2.497 -1.629,-3.724 l -0.506,-3.564 v -53.512 l 7.233,0.107 v 20.688 c 2.845,-1.427 6.265,-2.141 10.259,-2.141 4.669,0 8.513,0.985 11.527,2.957 3.012,1.971 4.891,4.759 5.635,8.356 0.135,0.679 0.271,1.527 0.408,2.546 0.137,1.021 0.252,2.043 0.354,3.062 0.101,1.016 0.186,1.933 0.254,2.751 0.068,0.816 0.104,1.358 0.104,1.632 z m -7.234,-6.424 c 0,-0.405 -0.038,-1 -0.104,-1.78 -0.068,-0.783 -0.137,-1.602 -0.202,-2.448 -0.068,-0.849 -0.17,-1.681 -0.307,-2.5 -0.137,-0.816 -0.238,-1.462 -0.307,-1.933 -0.405,-1.972 -1.495,-3.502 -3.261,-4.586 -1.77,-1.087 -4.012,-1.634 -6.728,-1.634 -2.787,0 -5.06,0.547 -6.829,1.634 -1.766,1.084 -2.888,2.615 -3.361,4.586 v 23.335 c 1.018,4.214 4.381,6.322 10.089,6.322 5.706,0 9.071,-2.108 10.09,-6.322 0.273,-1.152 0.477,-2.274 0.613,-3.359 0.134,-1.09 0.235,-2.683 0.307,-4.791 z"
       inkscape:connector-curvature="0"
       style="fill:#656464" /><path
       id="path3046"
       d="m 520.249,307.343 c 0,1.158 -0.474,2.333 -1.427,3.516 -0.947,1.191 -2.201,2.243 -3.756,3.163 -1.562,0.914 -3.354,1.664 -5.389,2.242 -2.029,0.575 -4.165,0.868 -6.401,0.868 -2.843,0 -5.569,-0.477 -8.179,-1.424 -2.61,-0.947 -4.69,-2.237 -6.251,-3.863 -1.692,-1.689 -2.538,-3.453 -2.538,-5.282 v -9.243 c 0,-2.166 0.882,-4.129 2.653,-5.89 1.489,-1.558 3.464,-2.724 5.908,-3.504 2.445,-0.78 5.266,-1.172 8.461,-1.172 h 9.682 v -5.963 c 0,-0.89 -0.411,-1.747 -1.222,-2.565 -0.887,-0.961 -2.108,-1.7 -3.672,-2.212 -1.562,-0.515 -3.156,-0.775 -4.788,-0.775 -2.108,0 -4.063,0.408 -5.862,1.227 -1.802,0.811 -2.971,1.799 -3.516,2.955 l -6.728,-3.669 c 0.613,-1.09 1.462,-2.073 2.547,-2.955 1.087,-0.887 2.344,-1.651 3.771,-2.292 1.421,-0.649 2.965,-1.158 4.624,-1.533 1.656,-0.37 3.368,-0.559 5.126,-0.559 2.842,0 5.553,0.476 8.12,1.424 2.574,0.958 4.671,2.209 6.298,3.773 0.811,0.884 1.438,1.804 1.878,2.751 0.438,0.953 0.66,2.105 0.66,3.463 v 27.519 z M 513.013,293.79 H 502.92 c -1.084,0 -2.174,0.066 -3.258,0.203 -1.09,0.137 -2.092,0.392 -3.01,0.764 -0.917,0.375 -1.664,0.903 -2.242,1.58 -0.577,0.679 -0.865,1.569 -0.865,2.65 v 5.81 c 0,0.885 0.408,1.73 1.222,2.546 0.952,0.885 2.192,1.6 3.724,2.142 1.527,0.542 3.141,0.815 4.841,0.815 1.632,0 3.226,-0.273 4.788,-0.815 1.563,-0.542 2.785,-1.257 3.672,-2.142 0.811,-0.815 1.222,-1.661 1.222,-2.546 V 293.79 Z"
       inkscape:connector-curvature="0"
       style="fill:#656464" /><path
       id="path3048"
       d="m 552.149,277.787 c -0.953,-0.816 -2.157,-1.459 -3.62,-1.936 -1.462,-0.474 -2.938,-0.712 -4.43,-0.712 -1.158,0 -2.311,0.134 -3.466,0.408 -1.156,0.273 -2.213,0.66 -3.16,1.169 -0.953,0.509 -1.733,1.106 -2.344,1.785 -0.613,0.676 -0.92,1.427 -0.92,2.24 v 4.488 31.084 h -7.233 v -35.263 -1.834 c 0,-0.208 0.032,-0.342 0.101,-0.411 0.203,-1.287 0.696,-2.566 1.477,-3.822 0.782,-1.254 1.87,-2.377 3.264,-3.362 1.391,-0.983 3.107,-1.785 5.147,-2.396 2.037,-0.608 4.413,-0.917 7.135,-0.917 5.161,0 9.34,1.191 12.535,3.567 z"
       inkscape:connector-curvature="0"
       style="fill:#656464" /><path
       id="path3050"
       d="m 582.316,277.787 c -0.949,-0.816 -2.157,-1.459 -3.619,-1.936 -1.459,-0.474 -2.938,-0.712 -4.431,-0.712 -1.155,0 -2.311,0.134 -3.466,0.408 -1.155,0.273 -2.21,0.66 -3.16,1.169 -0.952,0.509 -1.73,1.106 -2.344,1.785 -0.613,0.676 -0.917,1.427 -0.917,2.24 v 4.488 31.084 h -7.236 v -35.263 -1.834 c 0,-0.208 0.033,-0.342 0.102,-0.411 0.205,-1.287 0.695,-2.566 1.479,-3.822 0.78,-1.254 1.867,-2.377 3.261,-3.362 1.391,-0.983 3.107,-1.785 5.147,-2.396 2.037,-0.608 4.413,-0.917 7.135,-0.917 5.161,0 9.343,1.191 12.535,3.567 z"
       inkscape:connector-curvature="0"
       style="fill:#656464" /></g></g><g
   transform="translate(106.73621,40.62062)"
   id="g3052"><g
     id="g3054"><path
       id="path3056"
       d="m 601.617,251.014 c -6.744,0 -12.212,5.465 -12.212,12.211 0,6.744 5.468,12.223 12.212,12.223 6.746,0 12.214,-5.479 12.214,-12.223 0,-6.746 -5.468,-12.211 -12.214,-12.211 z m 0.509,14.95 c 0,0.058 -0.017,0.123 -0.044,0.181 -0.062,0.257 -0.167,0.542 -0.317,0.865 -0.15,0.323 -0.383,0.624 -0.698,0.895 -0.312,0.279 -0.723,0.518 -1.224,0.707 -0.507,0.184 -1.137,0.276 -1.903,0.276 -0.794,0 -1.448,-0.106 -1.957,-0.314 -0.513,-0.208 -0.918,-0.46 -1.227,-0.753 -0.31,-0.296 -0.534,-0.594 -0.674,-0.904 -0.146,-0.309 -0.235,-0.564 -0.282,-0.772 -0.076,-0.301 -0.132,-0.646 -0.17,-1.027 -0.038,-0.381 -0.065,-0.687 -0.079,-0.909 v -1.506 c 0,-0.063 0.008,-0.167 0.021,-0.315 0.014,-0.15 0.036,-0.323 0.058,-0.509 0.022,-0.184 0.05,-0.373 0.077,-0.564 0.033,-0.191 0.061,-0.361 0.093,-0.525 0.091,-0.436 0.263,-0.821 0.515,-1.175 0.258,-0.345 0.572,-0.635 0.947,-0.876 0.373,-0.241 0.789,-0.422 1.249,-0.55 0.454,-0.129 0.934,-0.192 1.429,-0.192 1.126,0 2.051,0.249 2.779,0.742 0.729,0.496 1.191,1.177 1.383,2.051 0.033,0.164 0.061,0.334 0.09,0.525 0.03,0.192 0.058,0.373 0.08,0.55 0.021,0.178 0.038,0.354 0.044,0.493 0.011,0.15 0.014,0.26 0.014,0.317 v 1.577 h -6.483 c -0.014,0.257 -0.014,0.471 0,0.644 0.016,0.178 0.038,0.329 0.068,0.452 0.032,0.143 0.06,0.263 0.087,0.356 0.05,0.118 0.11,0.238 0.184,0.37 0.074,0.126 0.181,0.249 0.315,0.364 0.137,0.12 0.32,0.213 0.55,0.295 0.233,0.071 0.531,0.107 0.89,0.107 0.361,0 0.652,-0.03 0.877,-0.101 0.225,-0.063 0.407,-0.151 0.553,-0.257 0.143,-0.115 0.252,-0.236 0.326,-0.367 0.076,-0.134 0.128,-0.254 0.155,-0.383 h 2.322 c -0.034,0.095 -0.048,0.166 -0.048,0.232 z m 8.121,1.319 c -0.222,0.323 -0.522,0.608 -0.89,0.852 -0.367,0.252 -0.8,0.446 -1.293,0.589 -0.492,0.134 -1.013,0.206 -1.549,0.206 -0.469,0 -0.937,-0.055 -1.408,-0.162 -0.473,-0.115 -0.903,-0.282 -1.297,-0.496 -0.387,-0.222 -0.718,-0.482 -0.986,-0.783 -0.273,-0.298 -0.438,-0.63 -0.498,-0.986 l 2.229,-0.561 c 0.014,0.087 0.082,0.181 0.203,0.279 0.12,0.101 0.271,0.189 0.448,0.274 0.181,0.079 0.384,0.147 0.608,0.202 0.225,0.05 0.457,0.077 0.701,0.077 0.312,0 0.624,-0.049 0.931,-0.159 0.307,-0.106 0.542,-0.241 0.706,-0.408 0.123,-0.102 0.184,-0.214 0.184,-0.337 v -0.559 c 0,-0.26 -0.137,-0.46 -0.405,-0.61 -0.271,-0.148 -0.671,-0.214 -1.19,-0.2 h -0.274 c -0.733,0 -1.391,-0.098 -1.977,-0.293 -0.586,-0.191 -1.06,-0.479 -1.419,-0.854 -0.448,-0.424 -0.676,-0.931 -0.676,-1.533 v -1.106 c 0,-0.493 0.217,-0.958 0.654,-1.388 0.389,-0.394 0.887,-0.701 1.495,-0.925 0.607,-0.227 1.248,-0.334 1.922,-0.334 0.616,0 1.21,0.085 1.78,0.263 0.569,0.181 1.051,0.444 1.439,0.792 l 0.249,0.227 -1.53,1.684 -0.252,-0.222 c -0.178,-0.167 -0.422,-0.31 -0.729,-0.43 -0.307,-0.123 -0.627,-0.181 -0.958,-0.181 -0.241,0 -0.466,0.03 -0.685,0.096 -0.216,0.058 -0.41,0.134 -0.586,0.222 -0.172,0.09 -0.307,0.191 -0.402,0.301 -0.102,0.107 -0.147,0.206 -0.147,0.312 v 0.326 c 0,0.178 0.052,0.323 0.155,0.43 0.121,0.121 0.296,0.222 0.531,0.293 0.233,0.08 0.499,0.115 0.797,0.115 h 0.387 c 0.733,0 1.391,0.099 1.977,0.295 0.586,0.192 1.064,0.466 1.442,0.822 0.433,0.438 0.652,0.944 0.652,1.528 v 1.328 c 10e-4,0.355 -0.111,0.691 -0.339,1.014 z"
       inkscape:connector-curvature="0"
       style="fill:#656464" /><path
       id="path3058"
       d="m 599.851,261.235 c -0.073,-0.359 -0.273,-0.646 -0.607,-0.86 -0.329,-0.225 -0.756,-0.332 -1.281,-0.332 -0.526,0 -0.961,0.107 -1.304,0.332 -0.345,0.213 -0.559,0.501 -0.633,0.86 -0.029,0.123 -0.055,0.266 -0.079,0.43 -0.021,0.164 -0.046,0.356 -0.076,0.586 h 4.14 c -0.045,-0.479 -0.1,-0.816 -0.16,-1.016 z"
       inkscape:connector-curvature="0"
       style="fill:#656464" /></g></g><path
   inkscape:connector-curvature="0"
   d="m 388.80236,308.91688 c -1.57962,-2.01779 -3.84358,-3.17966 -6.79794,-3.50011 l -1.77905,-0.17443 h -1.50991 -16.18534 -0.19943 v 24.06106 l 3.7696,0.006 0.0272,-0.006 1.28315,0.0143 1.06755,-0.0307 h 11.74713 l 1.77904,-0.1779 c 2.7016,-0.28569 4.81827,-1.29284 6.37001,-3.0058 0.14547,-0.16052 0.29216,-0.31872 0.42794,-0.49141 0.86376,-1.10509 1.48263,-2.43269 1.8736,-3.96659 0.32307,-1.26735 0.4934,-2.6726 0.4934,-4.23316 v -0.29381 c 0,-3.44621 -0.78981,-6.17966 -2.367,-8.20149 z"
   id="path3149-5-3"
   style="fill:#646464;fill-opacity:0.39215686"
   sodipodi:nodetypes="ccccccccccccccccsscc" />





</g>
</svg>