<?xml version="1.0" encoding="UTF-8" standalone="no"?>
<!DOCTYPE svg PUBLIC "-//W3C//DTD SVG 1.1//EN" "http://www.w3.org/Graphics/SVG/1.1/DTD/svg11.dtd">
<svg width="100%" height="100%" viewBox="0 0 50 50" version="1.1" xmlns="http://www.w3.org/2000/svg" xmlns:xlink="http://www.w3.org/1999/xlink" xml:space="preserve" xmlns:serif="http://www.serif.com/" style="fill-rule:evenodd;clip-rule:evenodd;stroke-linejoin:round;stroke-miterlimit:2;">
    <path d="M7.168,28.219C3.61,25.359 1.37,21.201 1.37,16.575C1.37,7.956 9.15,0.959 18.733,0.959C28.316,0.959 36.096,7.956 36.096,16.575C36.096,25.194 28.316,32.192 18.733,32.192C18.106,32.192 17.487,32.162 16.877,32.103L17.123,32.526L1.257,35.335L7.168,28.219Z" style="fill:rgb(235,235,235);"/>
    <path id="surface110133" d="M19,0C8.621,0 0,7.492 0,16.906C0,21.461 2.043,25.59 5.313,28.625C4.832,30.043 3.813,31.172 2.719,32.063C2.109,32.559 1.516,32.984 1.031,33.406C0.789,33.617 0.566,33.805 0.375,34.094C0.184,34.383 -0.012,34.883 0.125,35.375L0.25,35.75L0.594,35.969C1.633,36.559 2.895,36.625 4.219,36.531C5.543,36.438 6.973,36.137 8.375,35.75C10.309,35.219 11.965,34.586 13.344,34.031C16.133,40.5 23.082,44.813 31,44.813C32.344,44.813 33.699,44.629 34.969,44.438C36.336,45.043 42.301,47.594 46.438,47.594C47.625,47.594 48.547,47.383 49.281,46.969L49.656,46.75L49.75,46.375C50.043,45.305 49.137,44.555 47.969,43.625C46.793,42.691 45.238,41.449 44.563,39.719C47.969,36.578 49.906,32.313 49.906,27.906C49.906,20.711 44.656,14.211 37.094,11.906C34.707,4.973 27.457,0 19,0ZM19,2C26.617,2 32.973,6.398 35.125,12.406C35.133,12.43 35.148,12.445 35.156,12.469C35.168,12.5 35.176,12.531 35.188,12.563C35.324,12.957 35.434,13.344 35.531,13.75C35.602,14.031 35.637,14.305 35.688,14.594C35.699,14.668 35.707,14.738 35.719,14.813C35.762,15.078 35.816,15.355 35.844,15.625C35.848,15.664 35.84,15.711 35.844,15.75C35.875,16.129 35.906,16.52 35.906,16.906C35.906,17.418 35.871,17.906 35.813,18.406C35.754,18.914 35.676,19.414 35.563,19.906C35.336,20.875 34.992,21.797 34.563,22.688C34.133,23.578 33.613,24.426 33,25.219C32.695,25.613 32.348,26.008 32,26.375C31.652,26.742 31.293,27.102 30.906,27.438C30.527,27.77 30.133,28.105 29.719,28.406C27.617,29.926 25.078,31.004 22.313,31.5C21.207,31.699 20.078,31.813 18.906,31.813C18.23,31.813 17.559,31.777 16.906,31.719C16.875,31.715 16.844,31.723 16.813,31.719C16.727,31.711 16.645,31.695 16.563,31.688C16.332,31.66 16.094,31.629 15.875,31.594C15.578,31.547 15.305,31.5 15.031,31.438L14.719,31.344L14.406,31.469C13.117,32.012 10.488,33.117 7.844,33.844C6.52,34.207 5.184,34.48 4.063,34.563C3.566,34.598 3.359,34.449 2.969,34.406C3.289,34.156 3.559,33.957 3.969,33.625C5.301,32.539 6.941,30.969 7.469,28.625L7.594,28.031L7.156,27.625C3.957,24.895 2,21.094 2,16.906C2,8.719 9.578,2 19,2Z" style="fill:rgb(61,95,147);fill-rule:nonzero;"/>
    <g transform="matrix(0.268462,0,0,0.264577,9.18627,27.6294)">
        <g id="text3775">
            <text x="0px" y="0px" style="font-family:'Blippo-Heavy', 'Blippo';font-weight:800;font-size:119.923px;fill:rgb(61,95,147);">D</text>
        </g>
    </g>
</svg>
